inDegrees=yes
name=IK-live
DataType=double
version=3
OpenSimVersion=4.1
endheader
time	pelvis_tilt	pelvis_list	pelvis_rotation	pelvis_tx	pelvis_ty	pelvis_tz	hip_flexion_r	hip_adduction_r	hip_rotation_r	knee_angle_r	ankle_angle_r	subtalar_angle_r	mtp_angle_r	hip_flexion_l	hip_adduction_l	hip_rotation_l	knee_angle_l	ankle_angle_l	subtalar_angle_l	mtp_angle_l	lumbar_extension	lumbar_bending	lumbar_rotation	neck_flex	neck_latbend	neck_rot	arm_flex_r	arm_add_r	arm_rot_r	elbow_flex_r	pro_sup_r	wrist_flex_r	wrist_dev_r	arm_flex_l	arm_add_l	arm_rot_l	elbow_flex_l	pro_sup_l	wrist_flex_l	wrist_dev_l
16.5997032	9.292574012761888	40.332438755213	64.97112991505396	0.2341366603171506	0.04326292228651554	-1.326684523481465	-22.57117169827992	-1.591976316804377	-3.241458145969817	5.899560354604904	2.451982624139334	1.987972377786656	0	-24.74788768789517	-3.395140484746916	-11.58000132048591	9.793848132074926	-0.4439473045988533	4.250290820099795	0	-21.37711699760957	1.659277491615732	3.206407148933037	0	0	0	67.93885807834803	-15.00124951043456	-0.6423988779167087	76.54871521848563	45.22553603912126	0	4.970599762893698	69.13572182801491	-14.98746061967157	-0.6371612733589846	76.54807179363632	45.14802911867408	0	4.970599762893698
16.774603	22.98032920202325	29.81207951179241	74.64343828707062	0.2341366603171506	0.04326292228651554	-1.326684523481465	-22.57117169827992	-1.591976316804377	-3.241458145969817	5.899560354604904	2.451982624139334	1.987972377786656	0	-24.74788768789517	-3.395140484746916	-11.58000132048591	9.793848132074926	-0.4439473045988533	4.250290820099795	0	-21.37711699760957	1.659277491615732	3.206407148933037	0	0	0	0.7848145727175992	-15.17648235109982	33.30540315316184	7.089636878105446	24.88953023764241	0	0.01941344766527119	5.875378379942541	-13.22999450037525	43.88995379927041	6.906537425371389	33.4876661030147	0	0.01941344766527119
16.9494962	39.51819962190692	19.99552944118964	83.23977488404384	0.2341366603171506	0.04326292228651554	-1.326684523481465	-22.57117169827992	-1.591976316804377	-3.241458145969817	5.899560354604904	2.451982624139334	1.987972377786656	0	-24.74788768789517	-3.395140484746916	-11.58000132048591	9.793848132074926	-0.4439473045988533	4.250290820099795	0	-21.37711699760957	1.659277491615732	3.206407148933037	0	0	0	25.61498531840835	-15.08323462541066	13.84691219333064	73.15173542463754	43.45147306274409	0	5.248803738418336	29.21748370192264	-14.16515189342248	19.17553639035836	74.00912086321313	44.15707303631867	0	5.248803738418336
17.1243808	43.61300955278003	4.865195310819483	-260.2693927949404	0.2341366603171506	0.04326292228651554	-1.326684523481465	-22.57117169827992	-1.591976316804377	-3.241458145969817	5.899560354604904	2.451982624139334	1.987972377786656	0	-24.74788768789517	-3.395140484746916	-11.58000132048591	9.793848132074926	-0.4439473045988533	4.250290820099795	0	-21.37711699760957	1.659277491615732	3.206407148933037	0	0	0	89.71465874613317	-15.00056242565648	0.05179879390029611	74.97818702492887	44.98953399047949	0	4.999048711540172	89.73774217558353	-14.99435936458556	0.06640017899455647	74.97858870853668	44.99347938939471	0	4.999048711540172
17.2757308	44.01453454405196	3.248894548515882	-259.2347095624107	0.2341366603171506	0.04326292228651554	-1.326684523481465	-22.57117169827992	-1.591976316804377	-3.241458145969817	5.899560354604904	2.451982624139334	1.987972377786656	0	-24.74788768789517	-3.395140484746916	-11.58000132048591	9.793848132074926	-0.4439473045988533	4.250290820099795	0	-21.37711699760957	1.659277491615732	3.206407148933037	0	0	0	88.66453150651697	-15.00048633787879	0.2611517210753222	74.45634890552506	44.96111834796106	0	5.004530293538584	88.78508021125229	-14.99511922885317	0.3420901426185957	74.45187610237846	44.97660163750121	0	5.004530293538584
17.4501996	43.26975062528684	-8.812417276932527	-242.0037365988403	0.2341366603171506	0.04326292228651554	-1.326684523481465	-22.57117169827992	-1.591976316804377	-3.241458145969817	5.899560354604904	2.451982624139334	1.987972377786656	0	-24.74788768789517	-3.395140484746916	-11.58000132048591	9.793848132074926	-0.4439473045988533	4.250290820099795	0	-21.37711699760957	1.659277491615732	3.206407148933037	0	0	0	89.35959120070996	-14.99974477515349	-0.04098625783303973	75.03738559200723	44.99005128460711	0	4.989634491555677	89.3683342381826	-15.00255998540582	-0.03585755387278771	75.0393878100153	44.99565018506915	0	4.989634491555677
17.6250735	2.893776591695823	-19.68269603505989	-252.7248519624041	0.2341366603171506	0.04326292228651554	-1.326684523481465	-22.57117169827992	-1.591976316804377	-3.241458145969817	5.899560354604904	2.451982624139334	1.987972377786656	0	-24.74788768789517	-3.395140484746916	-11.58000132048591	9.793848132074926	-0.4439473045988533	4.250290820099795	0	-21.37711699760957	1.659277491615732	3.206407148933037	0	0	0	0.7849750390757493	-15.17648163786962	33.30518733668668	7.092742627310797	24.89011917982901	0	0.01968773223919189	5.87552417344863	-13.23000165573659	43.88962951792719	6.909716608630836	33.48795246268831	0	0.01968773223919189
17.7999661	-27.42832801051179	-13.15677981775434	-262.2245760149331	0.2341366603171506	0.04326292228651554	-1.326684523481465	-22.57117169827992	-1.591976316804377	-3.241458145969817	5.899560354604904	2.451982624139334	1.987972377786656	0	-24.74788768789517	-3.395140484746916	-11.58000132048591	9.793848132074926	-0.4439473045988533	4.250290820099795	0	-21.37711699760957	1.659277491615732	3.206407148933037	0	0	0	29.98949871493442	-15.06636869936409	9.812385478641993	69.64263672668164	46.22019416809886	0	6.054379172259415	33.21169775572692	-14.33433938165883	13.91564219836662	70.42987672379856	46.0074599347643	0	6.054379172259415
17.9748528	-35.98193420928608	-8.109314150422227	-261.9069043391506	0.2341366603171506	0.04326292228651554	-1.326684523481465	-22.57117169827992	-1.591976316804377	-3.241458145969817	5.899560354604904	2.451982624139334	1.987972377786656	0	-24.74788768789517	-3.395140484746916	-11.58000132048591	9.793848132074926	-0.4439473045988533	4.250290820099795	0	-21.37711699760957	1.659277491615732	3.206407148933037	0	0	0	90.05330356421035	-14.99871451303487	0.01671498930130191	74.8117350977578	45.11008428341164	0	5.025348932076595	90.11850707426701	-15.01289154585616	0.01897418502257142	74.81638382125291	45.07393240713816	0	5.025348932076595
18.1497597	-35.59807533548407	-2.934299520396645	-261.8056568031373	0.2341366603171506	0.04326292228651554	-1.326684523481465	-22.57117169827992	-1.591976316804377	-3.241458145969817	5.899560354604904	2.451982624139334	1.987972377786656	0	-24.74788768789517	-3.395140484746916	-11.58000132048591	9.793848132074926	-0.4439473045988533	4.250290820099795	0	-21.37711699760957	1.659277491615732	3.206407148933037	0	0	0	87.92565977875432	-14.99998802266764	-0.03583612719837123	74.99189776418567	44.99927390659317	0	4.999931175647343	88.17046147065007	-15.00012725597213	-0.07193326784527336	74.99186564177558	44.99962075370991	0	4.999931175647343
18.3246385	-18.63686655317652	24.08466297527661	-259.4552952830651	0.2341366603171506	0.04326292228651554	-1.326684523481465	-22.57117169827992	-1.591976316804377	-3.241458145969817	5.899560354604904	2.451982624139334	1.987972377786656	0	-24.74788768789517	-3.395140484746916	-11.58000132048591	9.793848132074926	-0.4439473045988533	4.250290820099795	0	-21.37711699760957	1.659277491615732	3.206407148933037	0	0	0	0.7838600807412461	-15.17648653430132	33.30664677043494	7.072651554908972	24.88631113957991	0	0.01794164448093583	5.874509657032217	-13.22995253376078	43.89180836098465	6.889094239729761	33.48608521548839	0	0.01794164448093583
18.4995257	-29.36208234365566	78.94284449557934	-237.9459155156925	0.2341366603171506	0.04326292228651554	-1.326684523481465	-22.57117169827992	-1.591976316804377	-3.241458145969817	5.899560354604904	2.451982624139334	1.987972377786656	0	-24.74788768789517	-3.395140484746916	-11.58000132048591	9.793848132074926	-0.4439473045988533	4.250290820099795	0	-21.37711699760957	1.659277491615732	3.206407148933037	0	0	0	27.18203732407229	-15.07187461604366	8.739172583352294	70.99452269945587	52.06918877775456	0	9.487090064816526	30.34529293525638	-14.2792237333666	11.608431520643	71.55229387629356	49.88024824986591	0	9.487090064816526
18.674421	148.1290709002819	101.0553578279592	-69.92230609879267	0.2341366603171506	0.04326292228651554	-1.326684523481465	-22.57117169827992	-1.591976316804377	-3.241458145969817	5.899560354604904	2.451982624139334	1.987972377786656	0	-24.74788768789517	-3.395140484746916	-11.58000132048591	9.793848132074926	-0.4439473045988533	4.250290820099795	0	-21.37711699760957	1.659277491615732	3.206407148933037	0	0	0	85.07962897422924	-14.99573575829455	-0.6875114569396179	75.67750404635758	45.14721388225936	0	5.024222952044503	85.51627055219409	-15.04275550486498	-0.8934367735546704	75.47159191584626	45.07622851527068	0	5.024222952044503
18.8329549	148.6406011558796	101.3687627560181	-70.91671381395342	0.2341366603171506	0.04326292228651554	-1.326684523481465	-22.57117169827992	-1.591976316804377	-3.241458145969817	5.899560354604904	2.451982624139334	1.987972377786656	0	-24.74788768789517	-3.395140484746916	-11.58000132048591	9.793848132074926	-0.4439473045988533	4.250290820099795	0	-21.37711699760957	1.659277491615732	3.206407148933037	0	0	0	78.98578289678483	-15.00022453655388	-0.0672213207861693	75.07757756140444	44.9681190150572	0	4.967474782649582	79.63489337913579	-14.99774382178683	-0.09640404687628423	74.4344835446081	44.96592793107314	0	4.967474782649582
